<svg width="25" height="25" viewBox="0 0 25 25" fill="none" xmlns="http://www.w3.org/2000/svg">
<path d="M8.94817 3.09396C5.86097 3.09396 3.34973 5.60752 3.34973 8.69552V16.6955C3.34973 19.7827 5.86329 22.294 8.95129 22.294H16.9513C20.0385 22.294 22.5497 19.7804 22.5497 16.6924V8.6924C22.5497 5.6052 20.0362 3.09396 16.9482 3.09396H8.94817ZM18.5497 6.29396C18.9913 6.29396 19.3497 6.65236 19.3497 7.09396C19.3497 7.53556 18.9913 7.89396 18.5497 7.89396C18.1081 7.89396 17.7497 7.53556 17.7497 7.09396C17.7497 6.65236 18.1081 6.29396 18.5497 6.29396ZM12.9497 7.89396C15.5969 7.89396 17.7497 10.0468 17.7497 12.694C17.7497 15.3412 15.5969 17.494 12.9497 17.494C10.3025 17.494 8.14973 15.3412 8.14973 12.694C8.14973 10.0468 10.3025 7.89396 12.9497 7.89396ZM12.9497 9.49396C12.101 9.49396 11.2871 9.8311 10.687 10.4312C10.0869 11.0313 9.74973 11.8453 9.74973 12.694C9.74973 13.5427 10.0869 14.3566 10.687 14.9567C11.2871 15.5568 12.101 15.894 12.9497 15.894C13.7984 15.894 14.6124 15.5568 15.2125 14.9567C15.8126 14.3566 16.1497 13.5427 16.1497 12.694C16.1497 11.8453 15.8126 11.0313 15.2125 10.4312C14.6124 9.8311 13.7984 9.49396 12.9497 9.49396Z" fill="#555555"/>
</svg>
