<svg width="25" height="25" viewBox="0 0 25 25" fill="none" xmlns="http://www.w3.org/2000/svg">
<path d="M12.9497 3.89398C9.60088 3.89398 5.25437 4.73304 5.25437 4.73304L5.24343 4.74554C3.71821 4.98947 2.54968 6.30008 2.54968 7.89398V12.694V12.6955V17.494V17.4955C2.55117 18.2568 2.82398 18.9925 3.31912 19.5707C3.81426 20.1489 4.49931 20.5317 5.25125 20.6502L5.25437 20.6549C5.25437 20.6549 9.60088 21.4955 12.9497 21.4955C16.2985 21.4955 20.645 20.6549 20.645 20.6549L20.6466 20.6534C21.3993 20.535 22.0851 20.152 22.5807 19.5731C23.0762 18.9942 23.3489 18.2575 23.3497 17.4955V17.494V12.6955V12.694V7.89398C23.3486 7.13248 23.0759 6.39634 22.5807 5.81782C22.0856 5.23931 21.4003 4.85634 20.6481 4.73773L20.645 4.73304C20.645 4.73304 16.2985 3.89398 12.9497 3.89398ZM10.5497 9.01273L16.9497 12.694L10.5497 16.3752V9.01273Z" fill="#555555"/>
</svg>
